<svg id="Layer_1" enable-background="new 0 0 512 512" height="512" viewBox="0 0 512 512" width="512" xmlns="http://www.w3.org/2000/svg"><g><g><g><path d="m122.367 512v-93.284c16.228-6.144 27.771-21.822 27.771-40.204v-73.112h-150.138v73.112c0 18.382 11.542 34.06 27.771 40.204v93.284z" fill="#ffcab9"/><g fill="#fabba7"><path d="m16.11 322.215c-8.898 0-16.11-7.212-16.11-16.109v-15.362c0-8.898 7.212-16.11 16.11-16.11 8.898 0 16.11 7.212 16.11 16.11v15.362c0 8.897-7.213 16.109-16.11 16.109z"/><path d="m48.33 322.215c-8.898 0-16.11-7.212-16.11-16.11v-32.875c0-8.898 7.212-16.11 16.11-16.11 8.898 0 16.11 7.212 16.11 16.11v32.875c0 8.898-7.213 16.11-16.11 16.11z"/><path d="m80.549 322.215c-8.898 0-16.11-7.212-16.11-16.11v-32.875c0-8.898 7.212-16.11 16.11-16.11 8.898 0 16.11 7.212 16.11 16.11v32.875c0 8.898-7.212 16.11-16.11 16.11z"/><path d="m112.769 322.215c-8.898 0-16.11-7.212-16.11-16.11v-32.875c0-8.898 7.212-16.11 16.11-16.11 8.898 0 16.11 7.212 16.11 16.11v32.875c0 8.898-7.213 16.11-16.11 16.11z"/></g><path d="m150.138 378.512v-72.407c0-8.898-7.212-16.11-16.11-16.11h-53.479c-8.898 0-16.11 7.212-16.11 16.11 0 8.898 7.212 16.11 16.11 16.11h37.369v24.114c-14.924 2.764-29.69 16.843-29.69 36.616" fill="#ffcab9"/></g><g><path d="m482.169 512v-134.491c16.228-6.144 27.771-21.822 27.771-40.204v-73.112h-150.138v73.112c0 18.382 11.542 34.06 27.771 40.204v134.491z" fill="#ffcab9"/><g fill="#fabba7"><path d="m446.521 272.42c-8.749 1.613-17.15-4.171-18.765-12.921l-17.457-94.658c-1.613-8.749 4.171-17.15 12.921-18.765 8.749-1.613 17.15 4.171 18.765 12.921l17.457 94.658c1.613 8.751-4.171 17.152-12.921 18.765z"/><path d="m465.21 271.045c-8.56-2.429-13.528-11.337-11.1-19.896l26.278-92.598c2.429-8.559 11.337-13.528 19.896-11.1 8.559 2.429 13.528 11.337 11.1 19.896l-26.278 92.598c-2.429 8.559-11.337 13.529-19.896 11.1z"/><path d="m375.912 281.008c-8.898 0-16.11-7.212-16.11-16.11v-15.362c0-8.898 7.212-16.11 16.11-16.11 8.898 0 16.11 7.212 16.11 16.11v15.362c0 8.897-7.213 16.11-16.11 16.11z"/><path d="m408.132 281.008c-8.898 0-16.11-7.212-16.11-16.11v-32.875c0-8.898 7.212-16.11 16.11-16.11 8.898 0 16.11 7.212 16.11 16.11v32.875c-.001 8.897-7.213 16.11-16.11 16.11z"/></g><path d="m509.94 337.305v-72.407c0-8.898-7.212-16.11-16.11-16.11h-53.479c-8.898 0-16.11 7.212-16.11 16.11 0 8.898 7.212 16.11 16.11 16.11h37.369v24.114c-14.924 2.764-29.69 16.843-29.69 36.616" fill="#ffcab9"/></g><g><g><path d="m355.182 101.752c-8.13-3.615-17.651.045-21.266 8.174l-21.729 50.309h-5.154v-32.169-8.76-80.589c0-8.897-7.212-16.11-16.11-16.11s-16.11 7.212-16.11 16.11v-22.607c.001-8.898-7.211-16.11-16.109-16.11-8.897 0-16.11 7.212-16.11 16.11v22.608c0-8.897-7.212-16.11-16.11-16.11s-16.11 7.212-16.11 16.11v38.117c0-8.897-7.212-16.11-16.11-16.11-8.897 0-16.11 7.212-16.11 16.11v115.584c0 18.382 11.542 34.06 27.772 40.204v279.377h94.595v-279.378c12.062-4.567 20.559-14.723 25.72-26.618 0 0 28.242-62.946 37.114-82.986 3.616-8.129-.043-17.65-8.173-21.266z" fill="#ffcab9"/><g><path d="m233.607 38.717c0-4.329 1.716-8.25 4.494-11.144-1.289-1.343-2.808-2.456-4.494-3.289z" fill="#fabba7"/></g></g><g fill="#f2a991"><path d="m210.375 58.806c-4.268 0-7.726 3.459-7.726 7.726v64.036c0 4.267 3.458 7.726 7.726 7.726s7.726-3.459 7.726-7.726v-64.036c.001-4.267-3.459-7.726-7.726-7.726z"/><path d="m242.594 30.991c-4.268 0-7.726 3.459-7.726 7.726v75.135c0 4.267 3.458 7.726 7.726 7.726s7.726-3.459 7.726-7.726v-75.135c.001-4.267-3.458-7.726-7.726-7.726z"/><path d="m274.814 30.991c-4.268 0-7.726 3.459-7.726 7.726v75.135c0 4.267 3.458 7.726 7.726 7.726s7.726-3.459 7.726-7.726v-75.135c.001-4.267-3.459-7.726-7.726-7.726z"/></g></g></g><g><path d="m88.229 390.672c-4.268 0-7.726-3.459-7.726-7.726 0-21.448 14.355-36.87 29.689-42.473v-10.53h-29.643c-4.268 0-7.726-3.459-7.726-7.726s3.458-7.726 7.726-7.726h37.368c4.268 0 7.726 3.459 7.726 7.726v24.114c0 3.724-2.657 6.919-6.319 7.598-11.329 2.098-23.371 12.982-23.371 29.019.002 4.265-3.457 7.724-7.724 7.724z" fill="#f2a991"/></g><g><path d="m266.383 204.579c-4.268 0-7.726-3.459-7.726-7.726 0-5.722 1.032-11.268 3.069-16.484 6.504-16.663 23.226-27.858 41.61-27.858h8.852c4.268 0 7.726 3.459 7.726 7.726s-3.458 7.726-7.726 7.726h-8.852c-12.07 0-23.006 7.244-27.215 18.025-1.334 3.418-2.011 7.074-2.011 10.864 0 4.267-3.459 7.727-7.727 7.727z" fill="#f2a991"/></g><g><path d="m448.03 349.465c-4.268 0-7.726-3.459-7.726-7.726 0-21.448 14.355-36.87 29.69-42.473v-10.53h-29.642c-4.268 0-7.726-3.459-7.726-7.726s3.458-7.726 7.726-7.726h37.369c4.268 0 7.726 3.459 7.726 7.726v24.114c0 3.724-2.657 6.919-6.319 7.598-11.33 2.098-23.372 12.982-23.372 29.019 0 4.265-3.458 7.724-7.726 7.724z" fill="#f2a991"/></g></g></svg>